<?xml version="1.0" encoding="UTF-8" standalone="no"?>
<!DOCTYPE svg PUBLIC "-//W3C//DTD SVG 1.1//EN" "http://www.w3.org/Graphics/SVG/1.1/DTD/svg11.dtd">
<svg width="100%" height="100%" viewBox="0 0 20 21" version="1.1" xmlns="http://www.w3.org/2000/svg" xmlns:xlink="http://www.w3.org/1999/xlink" xml:space="preserve" style="fill-rule:evenodd;clip-rule:evenodd;stroke-linejoin:round;stroke-miterlimit:1.41421;">
    <g transform="matrix(1,0,0,1,0,-52.0214)">
        <g id="Artboard1" transform="matrix(1.45517,0,0,1.84348,-0.791937,-38.2891)">
            <rect x="0.544" y="48.989" width="13.74" height="10.897" style="fill:none;"/>
            <g transform="matrix(0.687204,0,0,0.542453,0.544222,20.77)">
                <path d="M9.855,53.537C14.614,53.537 18.478,57.401 18.478,62.16C18.478,66.919 14.614,70.783 9.855,70.783C5.096,70.783 1.232,66.919 1.232,62.16C1.232,57.401 5.096,53.537 9.855,53.537ZM9.855,55.527L11.408,60.307L16.433,60.307L12.368,63.261L13.921,68.041L9.855,65.087L5.789,68.041L7.342,63.261L3.276,60.307L8.302,60.307L9.855,55.527Z" style="fill:url(#_Linear1);"/>
            </g>
        </g>
    </g>
    <defs>
        <linearGradient id="_Linear1" x1="0" y1="0" x2="1" y2="0" gradientUnits="userSpaceOnUse" gradientTransform="matrix(13.0764,21.5097,-21.5097,13.0764,3.89661,53.2532)"><stop offset="0" style="stop-color:rgb(250,8,24);stop-opacity:1"/><stop offset="1" style="stop-color:rgb(227,207,24);stop-opacity:1"/></linearGradient>
    </defs>
</svg>
