<?xml version="1.0" encoding="UTF-8" standalone="no"?>
<!DOCTYPE svg PUBLIC "-//W3C//DTD SVG 1.1//EN" "http://www.w3.org/Graphics/SVG/1.1/DTD/svg11.dtd">
<svg width="100%" height="100%" viewBox="0 0 44 48" version="1.1" xmlns="http://www.w3.org/2000/svg" xmlns:xlink="http://www.w3.org/1999/xlink" xml:space="preserve" style="fill-rule:evenodd;clip-rule:evenodd;stroke-linejoin:round;stroke-miterlimit:1.41421;">
    <g id="Search-icon" transform="matrix(0.677342,0,0,0.741767,0,0)">
        <rect x="0" y="0" width="64" height="64" style="fill:none;"/>
        <g transform="matrix(0.6451,0,0,0.589072,16.6517,18.1849)">
            <path d="M25.606,30.545C24.876,31.007 24.105,31.405 23.304,31.732C21.534,32.456 19.626,32.827 17.713,32.827C15.8,32.827 13.892,32.456 12.122,31.732C10.414,31.034 8.842,30.013 7.507,28.74C6.218,27.511 5.153,26.051 4.379,24.446C3.719,23.076 3.273,21.605 3.062,20.098C2.844,18.546 2.873,16.959 3.149,15.417C3.395,14.043 3.837,12.707 4.458,11.458C5.198,9.969 6.19,8.609 7.379,7.448C8.57,6.286 9.955,5.326 11.462,4.621C12.729,4.029 14.08,3.62 15.463,3.408C16.146,3.304 16.833,3.252 17.522,3.239C17.713,3.237 17.713,3.237 17.904,3.239C18.594,3.252 19.281,3.304 19.963,3.408C21.346,3.62 22.697,4.029 23.964,4.621C25.472,5.326 26.857,6.286 28.047,7.448C29.236,8.609 30.228,9.969 30.968,11.458C31.589,12.707 32.031,14.043 32.277,15.417C32.553,16.959 32.582,18.546 32.364,20.098C32.153,21.605 31.708,23.076 31.047,24.446C30.723,25.118 30.348,25.765 29.927,26.38L43.102,39.555C43.189,39.646 43.274,39.738 43.351,39.838C43.557,40.103 43.717,40.402 43.824,40.72C43.944,41.077 43.996,41.457 43.977,41.833C43.957,42.21 43.865,42.582 43.708,42.925C43.586,43.192 43.425,43.44 43.231,43.66C42.673,44.293 41.856,44.667 41.012,44.676C40.719,44.679 40.425,44.639 40.144,44.557C39.782,44.452 39.44,44.278 39.142,44.047C39.042,43.97 38.95,43.885 38.859,43.798L25.606,30.545ZM17.573,7.238C17.069,7.248 16.567,7.286 16.068,7.362C15.061,7.516 14.078,7.814 13.155,8.245C10.989,9.257 9.189,10.994 8.099,13.122C7.636,14.024 7.303,14.992 7.112,15.988C6.887,17.158 6.858,18.364 7.023,19.543C7.177,20.64 7.501,21.711 7.982,22.709C8.547,23.881 9.326,24.947 10.267,25.845C11.242,26.774 12.389,27.52 13.636,28.03C14.927,28.558 16.318,28.827 17.713,28.827C19.108,28.827 20.499,28.558 21.791,28.03C23.037,27.52 24.184,26.774 25.159,25.845C26.1,24.947 26.879,23.881 27.444,22.709C27.925,21.711 28.249,20.64 28.403,19.543C28.568,18.364 28.539,17.158 28.315,15.988C28.124,14.992 27.79,14.024 27.327,13.122C26.237,10.994 24.437,9.257 22.271,8.245C21.349,7.814 20.365,7.516 19.358,7.362C18.859,7.286 18.357,7.248 17.853,7.238C17.713,7.238 17.713,7.238 17.573,7.238Z" style="fill:rgb(145,145,145);"/>
        </g>
    </g>
</svg>
